{"accessors" : [{"bufferView" : 0, "byteOffset" : 0, "componentType" : 5123, "count" : 2850, "type" : "SCALAR", "max" : [2838], "min" : [0]}, {"bufferView" : 1, "byteOffset" : 0, "componentType" : 5126, "count" : 2839, "type" : "VEC3", "max" : [0.8192239999771118, 1.117272973060608, 1.6384700536727905], "min" : [-0.8192239999771118, 0.14575600624084473, -1.6334789991378784], "name" : "POSITION"}, {"bufferView" : 1, "byteOffset" : 12, "componentType" : 5126, "count" : 2839, "type" : "VEC3", "max" : [1.0000044107437134, 1.0000044107437134, 0.9994227886199951], "min" : [-1.0000044107437134, -1.0000044107437134, -0.9999535083770752], "name" : "NORMAL"}, {"bufferView" : 0, "byteOffset" : 5700, "componentType" : 5123, "count" : 186, "type" : "SCALAR", "max" : [185], "min" : [0]}, {"bufferView" : 2, "byteOffset" : 0, "componentType" : 5126, "count" : 186, "type" : "VEC3", "max" : [0.6545619964599609, 1.0845940113067627, 0.765404999256134], "min" : [-0.6545619964599609, 0.7489510178565979, -1.2206469774246216], "name" : "POSITION"}, {"bufferView" : 2, "byteOffset" : 12, "componentType" : 5126, "count" : 186, "type" : "VEC3", "max" : [0.8943865299224854, 0.8476001620292664, 0.6318150758743286], "min" : [-0.8943865299224854, 0.4472932815551758, -0.748720645904541], "name" : "NORMAL"}, {"bufferView" : 0, "byteOffset" : 6072, "componentType" : 5123, "count" : 84, "type" : "SCALAR", "max" : [80], "min" : [0]}, {"bufferView" : 3, "byteOffset" : 0, "componentType" : 5126, "count" : 81, "type" : "VEC3", "max" : [0.5024489760398865, 1.0996910333633423, -0.8815900087356567], "min" : [-0.5024489760398865, 1.0487840175628662, -0.9561319947242737], "name" : "POSITION"}, {"bufferView" : 3, "byteOffset" : 12, "componentType" : 5126, "count" : 81, "type" : "VEC3", "max" : [0.6481881141662598, 1.0000044107437134, 0.18309976160526276], "min" : [-0.6481881141662598, -0.9830987453460693, -1.0000044107437134], "name" : "NORMAL"}, {"bufferView" : 0, "byteOffset" : 6240, "componentType" : 5123, "count" : 24, "type" : "SCALAR", "max" : [23], "min" : [0]}, {"bufferView" : 4, "byteOffset" : 0, "componentType" : 5126, "count" : 24, "type" : "VEC3", "max" : [0.2375510036945343, 0.5326719880104065, 1.6129159927368164], "min" : [-0.2375510036945343, 0.22184400260448456, -1.6051980257034302], "name" : "POSITION"}, {"bufferView" : 4, "byteOffset" : 12, "componentType" : 5126, "count" : 24, "type" : "VEC3", "max" : [0.07929782569408417, 0.2273937612771988, 0.9996151328086853], "min" : [-0.07929782569408417, 0, -0.9705734252929688], "name" : "NORMAL"}, {"bufferView" : 0, "byteOffset" : 6288, "componentType" : 5123, "count" : 30, "type" : "SCALAR", "max" : [29], "min" : [0]}, {"bufferView" : 5, "byteOffset" : 0, "componentType" : 5126, "count" : 30, "type" : "VEC3", "max" : [0.629764974117279, 0.5142970085144043, 1.5706830024719238], "min" : [-0.629764974117279, 0.37335699796676636, 1.4273120164871216], "name" : "POSITION"}, {"bufferView" : 5, "byteOffset" : 12, "componentType" : 5126, "count" : 30, "type" : "VEC3", "max" : [0.7750293016433716, 0.3457027077674866, 0.9138071537017822], "min" : [-0.7750293016433716, 0.12219942361116409, 0.5787219405174255], "name" : "NORMAL"}, {"bufferView" : 0, "byteOffset" : 6348, "componentType" : 5123, "count" : 1146, "type" : "SCALAR", "max" : [1127], "min" : [0]}, {"bufferView" : 6, "byteOffset" : 0, "componentType" : 5126, "count" : 1128, "type" : "VEC3", "max" : [0.7604020237922668, 0.3110730051994324, 1.6603339910507202], "min" : [-0.7604020237922668, 0.14281399548053741, -1.6492890119552612], "name" : "POSITION"}, {"bufferView" : 6, "byteOffset" : 12, "componentType" : 5126, "count" : 1128, "type" : "VEC3", "max" : [1.0000044107437134, 1.0000044107437134, 0.999517560005188], "min" : [-1.0000044107437134, -1.0000044107437134, -0.9982600212097168], "name" : "NORMAL"}, {"bufferView" : 0, "byteOffset" : 8640, "componentType" : 5123, "count" : 12, "type" : "SCALAR", "max" : [11], "min" : [0]}, {"bufferView" : 7, "byteOffset" : 0, "componentType" : 5126, "count" : 12, "type" : "VEC3", "max" : [0.5900629758834839, 0.7301070094108582, -1.3736510276794434], "min" : [-0.5900629758834839, 0.5420969724655151, -1.4725470542907715], "name" : "POSITION"}, {"bufferView" : 7, "byteOffset" : 12, "componentType" : 5126, "count" : 12, "type" : "VEC3", "max" : [0.5741043090820312, 0.3459877073764801, -0.8150061368942261], "min" : [-0.5741043090820312, 0.07860059291124344, -0.8987680673599243], "name" : "NORMAL"}, {"bufferView" : 0, "byteOffset" : 8664, "componentType" : 5123, "count" : 828, "type" : "SCALAR", "max" : [819], "min" : [0]}, {"bufferView" : 8, "byteOffset" : 0, "componentType" : 5126, "count" : 820, "type" : "VEC3", "max" : [0.7489349842071533, 0.46669599413871765, -0.7078909873962402], "min" : [-0.7478860020637512, -0.028342999517917633, -1.2029290199279785], "name" : "POSITION"}, {"bufferView" : 8, "byteOffset" : 12, "componentType" : 5126, "count" : 820, "type" : "VEC3", "max" : [1.0000044107437134, 0.965933084487915, 0.965933084487915], "min" : [-1.0000044107437134, -0.965933084487915, -0.965933084487915], "name" : "NORMAL"}, {"bufferView" : 0, "byteOffset" : 10320, "componentType" : 5123, "count" : 1692, "type" : "SCALAR", "max" : [1683], "min" : [0]}, {"bufferView" : 9, "byteOffset" : 0, "componentType" : 5126, "count" : 1684, "type" : "VEC3", "max" : [0.7370150089263916, 0.38279300928115845, -0.7917940020561218], "min" : [-0.7359660267829895, 0.055560000240802765, -1.119027018547058], "name" : "POSITION"}, {"bufferView" : 9, "byteOffset" : 12, "componentType" : 5126, "count" : 1684, "type" : "VEC3", "max" : [1.0000044107437134, 0.9998123049736023, 0.9998123049736023], "min" : [-1.0000044107437134, -0.9998123049736023, -0.9998123049736023], "name" : "NORMAL"}, {"bufferView" : 0, "byteOffset" : 13704, "componentType" : 5123, "count" : 846, "type" : "SCALAR", "max" : [841], "min" : [0]}, {"bufferView" : 10, "byteOffset" : 0, "componentType" : 5126, "count" : 842, "type" : "VEC3", "max" : [0.7370150089263916, 0.38279300928115845, 1.2039639949798584], "min" : [0.6878250241279602, 0.055560000240802765, 0.8767309784889221], "name" : "POSITION"}, {"bufferView" : 10, "byteOffset" : 12, "componentType" : 5126, "count" : 842, "type" : "VEC3", "max" : [1.0000044107437134, 0.9998123049736023, 0.9998123049736023], "min" : [0, -0.9998123049736023, -0.9998123049736023], "name" : "NORMAL"}, {"bufferView" : 0, "byteOffset" : 15396, "componentType" : 5123, "count" : 414, "type" : "SCALAR", "max" : [409], "min" : [0]}, {"bufferView" : 11, "byteOffset" : 0, "componentType" : 5126, "count" : 410, "type" : "VEC3", "max" : [0.7489349842071533, 0.46669599413871765, 1.2878659963607788], "min" : [0.5685459971427917, -0.028342999517917633, 0.7928280234336853], "name" : "POSITION"}, {"bufferView" : 11, "byteOffset" : 12, "componentType" : 5126, "count" : 410, "type" : "VEC3", "max" : [1.0000044107437134, 0.965933084487915, 0.965933084487915], "min" : [-1.0000044107437134, -0.965933084487915, -0.965933084487915], "name" : "NORMAL"}, {"bufferView" : 0, "byteOffset" : 16224, "componentType" : 5123, "count" : 846, "type" : "SCALAR", "max" : [841], "min" : [0]}, {"bufferView" : 12, "byteOffset" : 0, "componentType" : 5126, "count" : 842, "type" : "VEC3", "max" : [-0.6867759823799133, 0.38279300928115845, 1.2039639949798584], "min" : [-0.7359660267829895, 0.055560000240802765, 0.8767309784889221], "name" : "POSITION"}, {"bufferView" : 12, "byteOffset" : 12, "componentType" : 5126, "count" : 842, "type" : "VEC3", "max" : [-0, 0.9998123049736023, 0.9998123049736023], "min" : [-1.0000044107437134, -0.9998123049736023, -0.9998123049736023], "name" : "NORMAL"}, {"bufferView" : 0, "byteOffset" : 17916, "componentType" : 5123, "count" : 414, "type" : "SCALAR", "max" : [409], "min" : [0]}, {"bufferView" : 13, "byteOffset" : 0, "componentType" : 5126, "count" : 410, "type" : "VEC3", "max" : [-0.5674980282783508, 0.46669599413871765, 1.2878659963607788], "min" : [-0.7478860020637512, -0.028342999517917633, 0.7928280234336853], "name" : "POSITION"}, {"bufferView" : 13, "byteOffset" : 12, "componentType" : 5126, "count" : 410, "type" : "VEC3", "max" : [1.0000044107437134, 0.965933084487915, 0.965933084487915], "min" : [-1.0000044107437134, -0.965933084487915, -0.965933084487915], "name" : "NORMAL"}], "asset" : {"generator" : "Aspose.3D 24.1.0", "version" : "2.0"}, "buffers" : [{"uri" : "data:application/octet-stream;base64,", "byteLength" : 243728}], "bufferViews" : [{"buffer" : 0, "byteOffset" : 0, "byteLength" : 18744, "target" : 34963}, {"buffer" : 0, "byteOffset" : 18748, "byteLength" : 68400, "byteStride" : 24, "target" : 34962}, {"buffer" : 0, "byteOffset" : 87152, "byteLength" : 4464, "byteStride" : 24, "target" : 34962}, {"buffer" : 0, "byteOffset" : 91620, "byteLength" : 2016, "byteStride" : 24, "target" : 34962}, {"buffer" : 0, "byteOffset" : 93640, "byteLength" : 576, "byteStride" : 24, "target" : 34962}, {"buffer" : 0, "byteOffset" : 94220, "byteLength" : 720, "byteStride" : 24, "target" : 34962}, {"buffer" : 0, "byteOffset" : 94944, "byteLength" : 27504, "byteStride" : 24, "target" : 34962}, {"buffer" : 0, "byteOffset" : 122452, "byteLength" : 288, "byteStride" : 24, "target" : 34962}, {"buffer" : 0, "byteOffset" : 122744, "byteLength" : 19872, "byteStride" : 24, "target" : 34962}, {"buffer" : 0, "byteOffset" : 142620, "byteLength" : 40608, "byteStride" : 24, "target" : 34962}, {"buffer" : 0, "byteOffset" : 183232, "byteLength" : 20304, "byteStride" : 24, "target" : 34962}, {"buffer" : 0, "byteOffset" : 203540, "byteLength" : 9936, "byteStride" : 24, "target" : 34962}, {"buffer" : 0, "byteOffset" : 213480, "byteLength" : 20304, "byteStride" : 24, "target" : 34962}, {"buffer" : 0, "byteOffset" : 233788, "byteLength" : 9936, "byteStride" : 24, "target" : 34962}], "materials" : [{"name" : "LightBlue", "pbrMetallicRoughness" : {"baseColorFactor" : [0.458901, 0.547924, 0.64, 1], "metallicFactor" : 0, "roughnessFactor" : 0.903921569}, "emissiveFactor" : [0, 0, 0], "alphaMode" : "OPAQUE", "doubleSided" : false}, {"name" : "Windows", "pbrMetallicRoughness" : {"baseColorFactor" : [0.028481, 0.028481, 0.028481, 1], "metallicFactor" : 0, "roughnessFactor" : 0.903921569}, "emissiveFactor" : [0, 0, 0], "alphaMode" : "OPAQUE", "doubleSided" : false}, {"name" : "Black", "pbrMetallicRoughness" : {"baseColorFactor" : [0.010962, 0.010962, 0.010962, 1], "metallicFactor" : 0, "roughnessFactor" : 0.903921569}, "emissiveFactor" : [0, 0, 0], "alphaMode" : "OPAQUE", "doubleSided" : false}, {"name" : "Grey", "pbrMetallicRoughness" : {"baseColorFactor" : [0.161245, 0.161245, 0.161245, 1], "metallicFactor" : 0, "roughnessFactor" : 0.903921569}, "emissiveFactor" : [0, 0, 0], "alphaMode" : "OPAQUE", "doubleSided" : false}, {"name" : "Headlights", "pbrMetallicRoughness" : {"baseColorFactor" : [0.639282, 0.30101, 0.10195, 1], "metallicFactor" : 0, "roughnessFactor" : 0.903921569}, "emissiveFactor" : [0, 0, 0], "alphaMode" : "OPAQUE", "doubleSided" : false}, {"name" : "Material.007", "pbrMetallicRoughness" : {"baseColorFactor" : [0.64, 0.64, 0.64, 1], "metallicFactor" : 0, "roughnessFactor" : 0.903921569}, "emissiveFactor" : [0, 0, 0], "alphaMode" : "OPAQUE", "doubleSided" : false}, {"name" : "TailLights", "pbrMetallicRoughness" : {"baseColorFactor" : [0.639282, 0.074447, 0.059371, 1], "metallicFactor" : 0, "roughnessFactor" : 0.903921569}, "emissiveFactor" : [0, 0, 0], "alphaMode" : "OPAQUE", "doubleSided" : false}, {"name" : "Black", "pbrMetallicRoughness" : {"baseColorFactor" : [0.010962, 0.010962, 0.010962, 1], "metallicFactor" : 0, "roughnessFactor" : 0.903921569}, "emissiveFactor" : [0, 0, 0], "alphaMode" : "OPAQUE", "doubleSided" : false}, {"name" : "Grey", "pbrMetallicRoughness" : {"baseColorFactor" : [0.161245, 0.161245, 0.161245, 1], "metallicFactor" : 0, "roughnessFactor" : 0.903921569}, "emissiveFactor" : [0, 0, 0], "alphaMode" : "OPAQUE", "doubleSided" : false}, {"name" : "Grey", "pbrMetallicRoughness" : {"baseColorFactor" : [0.161245, 0.161245, 0.161245, 1], "metallicFactor" : 0, "roughnessFactor" : 0.903921569}, "emissiveFactor" : [0, 0, 0], "alphaMode" : "OPAQUE", "doubleSided" : false}, {"name" : "Black", "pbrMetallicRoughness" : {"baseColorFactor" : [0.010962, 0.010962, 0.010962, 1], "metallicFactor" : 0, "roughnessFactor" : 0.903921569}, "emissiveFactor" : [0, 0, 0], "alphaMode" : "OPAQUE", "doubleSided" : false}, {"name" : "Grey", "pbrMetallicRoughness" : {"baseColorFactor" : [0.161245, 0.161245, 0.161245, 1], "metallicFactor" : 0, "roughnessFactor" : 0.903921569}, "emissiveFactor" : [0, 0, 0], "alphaMode" : "OPAQUE", "doubleSided" : false}, {"name" : "Black", "pbrMetallicRoughness" : {"baseColorFactor" : [0.010962, 0.010962, 0.010962, 1], "metallicFactor" : 0, "roughnessFactor" : 0.903921569}, "emissiveFactor" : [0, 0, 0], "alphaMode" : "OPAQUE", "doubleSided" : false}], "meshes" : [{"primitives" : [{"attributes" : {"POSITION" : 1, "NORMAL" : 2}, "indices" : 0, "material" : 0, "mode" : 4}, {"attributes" : {"POSITION" : 4, "NORMAL" : 5}, "indices" : 3, "material" : 1, "mode" : 4}, {"attributes" : {"POSITION" : 7, "NORMAL" : 8}, "indices" : 6, "material" : 2, "mode" : 4}, {"attributes" : {"POSITION" : 10, "NORMAL" : 11}, "indices" : 9, "material" : 3, "mode" : 4}, {"attributes" : {"POSITION" : 13, "NORMAL" : 14}, "indices" : 12, "material" : 4, "mode" : 4}, {"attributes" : {"POSITION" : 16, "NORMAL" : 17}, "indices" : 15, "material" : 5, "mode" : 4}, {"attributes" : {"POSITION" : 19, "NORMAL" : 20}, "indices" : 18, "material" : 6, "mode" : 4}]}, {"primitives" : [{"attributes" : {"POSITION" : 22, "NORMAL" : 23}, "indices" : 21, "material" : 7, "mode" : 4}, {"attributes" : {"POSITION" : 25, "NORMAL" : 26}, "indices" : 24, "material" : 8, "mode" : 4}]}, {"primitives" : [{"attributes" : {"POSITION" : 28, "NORMAL" : 29}, "indices" : 27, "material" : 9, "mode" : 4}, {"attributes" : {"POSITION" : 31, "NORMAL" : 32}, "indices" : 30, "material" : 10, "mode" : 4}]}, {"primitives" : [{"attributes" : {"POSITION" : 34, "NORMAL" : 35}, "indices" : 33, "material" : 11, "mode" : 4}, {"attributes" : {"POSITION" : 37, "NORMAL" : 38}, "indices" : 36, "material" : 12, "mode" : 4}]}], "nodes" : [{"mesh" : 0, "name" : "NormalCar2_Cube.002"}, {"mesh" : 1, "name" : "NormalCar2_BackWheels_Cylinder.003"}, {"mesh" : 2, "name" : "NormalCar2_FrontLeftWheel_Cylinder.015"}, {"mesh" : 3, "name" : "NormalCar2_FrontRightWheel_Cylinder.016"}], "scene" : 0, "scenes" : [{"nodes" : [0, 1, 2, 3]}]}